<svg width="623" height="697" viewBox="0 0 623 697" fill="none" xmlns="http://www.w3.org/2000/svg">
<circle cx="309" cy="110" r="110" fill="#CE1515"/>
<path d="M309 220L443.234 438.25H174.766L309 220Z" fill="#D9D9D9"/>
<path d="M149 227H311.5L254.5 248L164.5 279L74.5 372.5L112.5 459L36.5 480L0 409L62.5 317L149 227Z" fill="#018ECB"/>
<path d="M473.5 227H311L368 248L458 279L548 372.5L510 459L586 480L622.5 409L560 317L473.5 227Z" fill="#018ECB"/>
<path d="M193.5 655L178 438.5L323.5 419L441 438.5V655L422 696.5H363L342.5 655L323.5 493.5L290.5 655L275 696.5H211L193.5 655Z" fill="#D9D9D9"/>
</svg>
